<svg t="1732781693955" class="icon" viewBox="0 0 1024 1024" version="1.1" xmlns="http://www.w3.org/2000/svg" p-id="9128"
     width="128" height="128">
    <path d="M32.19520272 154.70511555c0 81.7069697 180.03230611 146.79557268 401.61052901 146.79557268s401.61052904-65.08860298 401.61052905-146.79557268c0-81.7069697-180.03230611-146.79557268-401.61052905-146.79557269s-401.61052904 66.47346689-401.61052901 146.79557269zM433.80573173 463.52976374c-221.57822292 0-401.61052904-66.47346689-401.61052901-146.79557268v182.80203391c0 80.3221058 180.03230611 146.79557268 401.61052901 146.79557268s401.61052904-66.47346689 401.61052905-146.79557268V316.73419106c0 80.3221058-180.03230611 146.79557268-401.61052905 146.79557268zM433.80573173 903.91648178c-27.69727787-29.08214175-41.54591679-73.39778634-34.62159732-109.40424756C198.3788699 786.20305086 32.19520272 719.72958398 32.19520272 646.33179765v191.11121726c0 80.3221058 180.03230611 146.79557268 401.61052901 146.79557268h69.24319468l-69.24319468-80.32210581zM1005.75451965 813.90032872s12.46377503 22.1578223 0 44.31564458c-15.23350282 22.1578223-47.08537237 60.93401131-72.01292245 80.32210581-29.08214175 22.1578223-88.63128916 76.16751413-214.65390345 76.16751414s-224.3479507-109.40424758-224.3479507-109.40424757l-44.3156446-44.31564459s-15.23350282-24.92755008-2.76972779-51.23996405c6.92431946-9.69404726 15.23350282-16.61836672 31.85186954-31.85186955 12.46377503-16.61836672 59.54914741-63.70373908 91.40101696-80.3221058 6.92431946-2.76972779 54.00969185-38.77618901 116.32856703-48.47023627 63.70373908-9.69404726 150.95016436 2.76972779 249.27550078 90.01615307 69.24319466 67.85833077 69.24319466 74.78265024 69.24319468 74.78265023zM727.39687711 964.85049308c72.01292244 0 128.79234206-60.93401131 128.79234206-131.56206985s-56.77941962-131.56206986-128.79234206-131.56206986c-72.01292244 0-128.79234206 60.93401131-128.79234207 131.56206986s56.77941962 131.56206986 128.79234207 131.56206985z m-83.0918336-132.94693375c0-9.69404726 2.76972779-19.38809451 6.92431946-29.08214175 6.92431946-9.69404726 9.69404726-19.38809451 19.38809451-26.31241397 6.92431946-9.69404726 16.61836672-12.46377503 22.1578223-16.61836672 9.69404726-2.76972779 19.38809451-6.92431946 29.08214175-6.92431946 9.69404726 0 19.38809451 2.76972779 29.08214176 6.92431946 9.69404726 2.76972779 19.38809451 9.69404726 26.31241397 16.61836672s12.46377503 16.61836672 16.61836672 26.31241397c2.76972779 9.69404726 6.92431946 19.38809451 6.92431947 29.08214175 0 9.69404726-2.76972779 19.38809451-6.92431947 29.08214176-2.76972779 9.69404726-9.69404726 19.38809451-16.61836672 26.31241398s-16.61836672 12.46377503-26.31241397 16.61836671c-9.69404726 2.76972779-19.38809451 6.92431946-29.08214176 6.92431947-9.69404726 0-19.38809451-2.76972779-29.08214175-6.92431947-11.07891114-4.15459167-20.77295839-11.07891114-26.31241399-18.0032306-6.92431946-6.92431946-12.46377503-16.61836672-16.61836671-26.31241398-2.76972779-8.30918336-5.53945557-18.00323062-5.53945557-27.69727787z m0 0"
          fill="#1195db" p-id="9129"></path>
</svg>