<svg t="1732700189069" class="icon" viewBox="0 0 1024 1024" version="1.1" xmlns="http://www.w3.org/2000/svg" p-id="5020"
     width="128" height="128">
    <path d="M0 178.176a427.008 178.176 0 1 0 854.016 0 427.008 178.176 0 1 0-854.016 0Z" fill="#1195db"
          p-id="5021"></path>
    <path d="M739.328 552.96c-99.328 0-179.2 79.872-179.2 179.2S640 911.36 739.328 911.36s179.2-79.872 179.2-179.2S838.656 552.96 739.328 552.96z m0 285.696c-59.392 0-106.496-48.128-106.496-106.496S679.936 624.64 739.328 624.64c59.392 0 106.496 48.128 106.496 106.496s-48.128 107.52-106.496 107.52z"
          fill="#1195db" p-id="5022"></path>
    <path d="M792.4736 842.97728l50.688-50.688 181.02272 181.02272-50.688 50.688zM498.688 914.432c-23.552 2.048-47.104 2.048-71.68 2.048-190.464 0-352.256-52.224-407.552-123.904C7.168 809.984 0 827.392 0 845.824 0 944.128 191.488 1024 427.008 1024c70.656 0 137.216-7.168 195.584-19.456-49.152-19.456-91.136-50.176-123.904-90.112zM728.064 433.152c30.72 0 61.44 5.12 89.088 13.312 23.552-21.504 35.84-46.08 35.84-71.68 0-18.432-7.168-36.864-19.456-53.248-54.272 71.68-216.064 123.904-407.552 123.904-190.464 0-352.256-52.224-407.552-123.904C7.168 337.92 0 356.352 0 374.784 0 473.088 191.488 552.96 427.008 552.96c22.528 0 44.032-1.024 65.536-2.048 54.272-71.68 139.264-117.76 235.52-117.76zM433.152 728.064c0-16.384 1.024-31.744 4.096-47.104h-10.24c-190.464 0-352.256-52.224-407.552-123.904C7.168 573.44 0 591.872 0 610.304 0 708.608 191.488 788.48 427.008 788.48h12.288c-4.096-19.456-6.144-39.936-6.144-60.416z"
          fill="#1195db" p-id="5023"></path>
</svg>